# xmcd
#
# Track frame offsets:
#	150
#	27857
#	47472
#	69975
#	89130
#	117487
#	134872
#	152970
#	176535
#	200567
#	228080
#	252570
#	276575
#	292502
#	311835
#
# Disc length: 4433
#
# Revision: 1
# Processed by: cddbd v1.5.1PL0 Copyright (c) Steve Scherf et al.
# Submitted via: CDex 1.50
# Normalized: r0:DSETVAR1,TDELIM( - )
#
DISCID=e2114f0f
DTITLE=Various Artist - Revival Hitmix 4
DYEAR=1900
DGENRE=English
TTITLE0=J.F.M. Project - The Power Of Love (U.K. Mix)
TTITLE1=Patricia - Have You Ever Seen The Rain (Extended Mix)
TTITLE2=Tim Westwood and General Est. - Stop That Train (Techno Version)
TTITLE3=Cabballero - Dancing With Tears In My Eyes (Alternative Version)
TTITLE4=Jessica Jay - Casablanca (Re-Mix)
TTITLE5=Jill Dreski - Heartbreaker (Radio Edit)
TTITLE6=Thelma Houston - Don't Leave Me This Way (7 Inch Edit)
TTITLE7=Nora Simon - More Than I Can Say
TTITLE8=D.J. Miko - Hot Stuff (Factory Team Edit)
TTITLE9=Beatmatic - The Final Countdown (Original Mix)
TTITLE10=Dany Marty - Feelings (Downbeat)
TTITLE11=Jamtronik - Without You (Club Mix)
TTITLE12=V.I.P. - I Like Chopin'
TTITLE13=Jessica Jay - The Room At The Top Of The Stairs (Another Mix)
TTITLE14=Paco - Up Where We Belong
EXTD=
EXTT0=
EXTT1=
EXTT2=
EXTT3=
EXTT4=
EXTT5=
EXTT6=
EXTT7=
EXTT8=
EXTT9=
EXTT10=
EXTT11=
EXTT12=
EXTT13=
EXTT14=
PLAYORDER=
